<svg fill="#000000" xmlns="http://www.w3.org/2000/svg"  viewBox="0 0 50 50" width="30px" height="30px"><path d="M 25 2 C 12.309295 2 2 12.309295 2 25 C 2 37.690705 12.309295 48 25 48 C 37.690705 48 48 37.690705 48 25 C 48 12.309295 37.690705 2 25 2 z M 25 4 C 36.609824 4 46 13.390176 46 25 C 46 36.609824 36.609824 46 25 46 C 13.390176 46 4 36.609824 4 25 C 4 13.390176 13.390176 4 25 4 z M 17.527344 16 L 23.615234 24.943359 L 17.453125 34 L 19.998047 34 L 24.800781 26.902344 L 25 26.902344 L 29.716797 34 L 32.410156 34 L 26.310547 25.044922 L 32.546875 16 L 29.990234 16 L 25.175781 23.160156 L 24.974609 23.160156 L 20.234375 16 L 17.527344 16 z"/></svg>