<?xml version="1.0" encoding="UTF-8"?>
<svg xmlns="http://www.w3.org/2000/svg" xmlns:xlink="http://www.w3.org/1999/xlink" viewBox="0 0 15 15" width="15px" height="15px">
<g id="surface28436817">
<path style=" stroke:none;fill-rule:nonzero;fill:rgb(100%,100%,100%);fill-opacity:1;" d="M 7.5 0.601562 C 3.691406 0.601562 0.601562 3.691406 0.601562 7.5 C 0.601562 11.308594 3.691406 14.398438 7.5 14.398438 C 11.308594 14.398438 14.398438 11.308594 14.398438 7.5 C 14.398438 3.691406 11.308594 0.601562 7.5 0.601562 Z M 7.5 1.199219 C 10.984375 1.199219 13.800781 4.015625 13.800781 7.5 C 13.800781 10.984375 10.984375 13.800781 7.5 13.800781 C 4.015625 13.800781 1.199219 10.984375 1.199219 7.5 C 1.199219 4.015625 4.015625 1.199219 7.5 1.199219 Z M 5.257812 4.800781 L 7.085938 7.484375 L 5.234375 10.199219 L 6 10.199219 L 7.441406 8.070312 L 7.5 8.070312 L 8.914062 10.199219 L 9.722656 10.199219 L 7.894531 7.511719 L 9.765625 4.800781 L 8.996094 4.800781 L 7.550781 6.949219 L 7.492188 6.949219 L 6.070312 4.800781 Z M 5.257812 4.800781 "/>
</g>
</svg>
