<?xml version="1.0" encoding="UTF-8"?>
<svg xmlns="http://www.w3.org/2000/svg" xmlns:xlink="http://www.w3.org/1999/xlink" viewBox="0 0 30 30" width="30px" height="30px">
<g id="surface28436758">
<path style=" stroke:none;fill-rule:nonzero;fill:rgb(100%,100%,100%);fill-opacity:1;" d="M 15 1.199219 C 7.386719 1.199219 1.199219 7.386719 1.199219 15 C 1.199219 22.613281 7.386719 28.800781 15 28.800781 C 22.613281 28.800781 28.800781 22.613281 28.800781 15 C 28.800781 7.386719 22.613281 1.199219 15 1.199219 Z M 15 2.398438 C 21.964844 2.398438 27.601562 8.035156 27.601562 15 C 27.601562 21.964844 21.964844 27.601562 15 27.601562 C 8.035156 27.601562 2.398438 21.964844 2.398438 15 C 2.398438 8.035156 8.035156 2.398438 15 2.398438 Z M 10.515625 9.601562 L 14.167969 14.964844 L 10.472656 20.398438 L 12 20.398438 L 14.878906 16.140625 L 15 16.140625 L 17.828125 20.398438 L 19.445312 20.398438 L 15.785156 15.027344 L 19.527344 9.601562 L 17.992188 9.601562 L 15.105469 13.894531 L 14.984375 13.894531 L 12.140625 9.601562 Z M 10.515625 9.601562 "/>
</g>
</svg>
